<svg xmlns="http://www.w3.org/2000/svg" viewBox="0 0 820 680" width="820" height="680" font-family="Georgia, serif">

  <rect width="820" height="680" fill="#f5f0e8"/>
  <text x="410" y="28" text-anchor="middle" font-size="16" font-weight="bold" fill="#2c2c2c">8958 Fraser River St — 后院改造平面图 v12</text>
  <text x="410" y="45" text-anchor="middle" font-size="11" fill="#888">上=东（偏南） · 下=西 · 左=北 · 右=南 · 1ft ≈ 8px · Plan 3 (May 2026)</text>

  <!--
  v12 Plan 3 changes from v11:
  - East Corridor (X=192~224, Y=225~385) CANCELLED — extension into grass removed
  - East South Strip (X=192~224, Y=385~530) CANCELLED — extension into grass/mulch removed
  - Staircase Base Strip (X=160~192, Y=385~530) NEW PAVING — was rock-filled, now paved
  - North Patio Extension (X=80~192, Y=105~225) still active, seat wall retained
  - Lawn now simple rectangle to X=192 (no East Corridor notch)
  - Mulch bed extends from X=192 (was X=224) to absorb former East South Strip zone
  - Arc cut removed (no East Corridor)
  Total new paving: ~282 sq ft (210 North Patio + 72 Staircase Base Strip)
  Mulch bed north edge extended +10 ft total (Y=385→305); mulch now ~970 sqft; lawn now ~625 sqft
  -->

  <!-- 围栏 -->
  <line x1="520" y1="80" x2="520" y2="610" stroke="#8B6914" stroke-width="4" stroke-dasharray="12,4"/>
  <line x1="160" y1="80" x2="520" y2="80" stroke="#8B6914" stroke-width="2.5" stroke-dasharray="10,4"/>
  <text x="537" y="348" text-anchor="middle" font-size="10" fill="#8B6914" transform="rotate(90,537,348)">东侧围栏 66.19 ft</text>
  <text x="340" y="76" text-anchor="middle" font-size="9" fill="#8B6914">北侧围栏</text>

  <!-- 东侧隔离带 -->
  <rect x="468" y="80" width="52" height="450" fill="#8B6040" stroke="none" opacity="0.55"/>
  <!-- 黑色mulch带（隔离带内，弧形） -->
  <path d="M 468,150 Q 480,200 472,280 Q 465,340 470,420 Q 475,460 468,510"
        fill="none" stroke="#1a1a1a" stroke-width="22" stroke-linecap="round" opacity="0.75"/>
  <path d="M 475,155 Q 487,210 480,285 Q 473,345 478,425 Q 483,465 476,512"
        fill="none" stroke="#1a1a1a" stroke-width="14" stroke-linecap="round" opacity="0.5"/>
  <text x="462" y="310" text-anchor="middle" font-size="8" fill="#5a3a20" transform="rotate(-90,462,310)">碎石+Mulch隔离带 ~6.5ft</text>

  <!-- 北侧碎石带 X=192~468, Y=80~160 -->
  <rect x="192" y="80" width="276" height="80" fill="#c0a878" stroke="none" opacity="0.6"/>
  <text x="330" y="124" text-anchor="middle" font-size="9" fill="#5a3a10">碎石区（草坪北侧 ~10ft）</text>

  <!-- 右下角隔离带延伸到底 -->
  <rect x="468" y="530" width="52" height="80" fill="#8B6040" stroke="none" opacity="0.55"/>

  <!-- 松树（东南角落） -->
  <circle cx="494" cy="592" r="16" fill="#2a6820" stroke="#1a4810" stroke-width="1.5" opacity="0.95"/>
  <text x="494" y="596" text-anchor="middle" font-size="7" fill="#fff">松树</text>

  <!-- 梨树 + 三个Garden Box（沿北fence向西） -->
  <circle cx="498" cy="97" r="17" fill="#3a7a28" stroke="#1a5010" stroke-width="1.5"/>
  <text x="498" y="101" text-anchor="middle" font-size="8" fill="#fff">梨树</text>
  <rect x="432" y="83" width="48" height="30" fill="#c8a060" stroke="#8B6030" stroke-width="2" rx="2"/>
  <text x="456" y="102" text-anchor="middle" font-size="7" fill="#5a3000">Box 1</text>
  <rect x="378" y="83" width="48" height="30" fill="#c8a060" stroke="#8B6030" stroke-width="2" rx="2"/>
  <text x="402" y="102" text-anchor="middle" font-size="7" fill="#5a3000">Box 2</text>
  <rect x="324" y="83" width="48" height="30" fill="#c8a060" stroke="#8B6030" stroke-width="2" rx="2"/>
  <text x="348" y="102" text-anchor="middle" font-size="7" fill="#5a3000">Box 3</text>

  <!-- South Pathway X=20~224 -->
  <rect x="20" y="530" width="204" height="80" fill="#a8a090" stroke="#787060" stroke-width="1.5" rx="2" opacity="0.9"/>
  <text x="112" y="563" text-anchor="middle" font-size="9" fill="#333" font-weight="bold">南侧Pathway（现有水泥）</text>
  <text x="112" y="576" text-anchor="middle" font-size="8" fill="#555">9.96ft · 坡度13% · 保留</text>
  <line x1="224" y1="525" x2="224" y2="618" stroke="#787060" stroke-width="2"/>

  <!-- pathway以东碎石区 -->
  <rect x="224" y="530" width="244" height="80" fill="#c0a878" stroke="#806040" stroke-width="1" stroke-dasharray="4,3" rx="2" opacity="0.5"/>
  <text x="346" y="575" text-anchor="middle" font-size="9" fill="#6a4a20">碎石/Mulch区</text>

  <!-- 房屋主体 -->
  <rect x="20" y="225" width="140" height="305" fill="#d0c8b8" stroke="#888" stroke-width="2" rx="2"/>
  <text x="55" y="385" text-anchor="middle" font-size="11" fill="#777" transform="rotate(-90,55,385)">房　屋</text>

  <!-- ══════════════════════════════
       草坪 (Plan 3: 简单矩形，延伸到X=192，无东扩缺口)
  ══════════════════════════════ -->
  <polygon points="192,160 468,160 468,305 192,305"
           fill="#7ab648" stroke="none" opacity="0.85"/>

  <!-- 草坪标注 -->
  <text x="346" y="220" text-anchor="middle" font-size="12" fill="#1a4a00" font-weight="bold">草坪保留区</text>
  <text x="346" y="236" text-anchor="middle" font-size="9" fill="#2d5a0e">~625 sq ft</text>
  <text x="346" y="289" text-anchor="middle" font-size="8" fill="#3a6a1a">Fine Fescue / Buffalo Grass</text>

  <!-- Mulch种植区 (Plan 3: 延伸到X=192，含原东扩南段区域) -->
  <rect x="192" y="305" width="276" height="225" fill="#a07850" stroke="#806040" stroke-width="1.5" rx="3" opacity="0.7"/>
  <text x="350" y="455" text-anchor="middle" font-size="10" fill="#4a2a00">Mulch 种植区</text>
  <text x="350" y="470" text-anchor="middle" font-size="9" fill="#5a3a10">Russian Sage · Blue Oat Grass</text>

  <!-- ══════════════════════════════
       水泥区域（画在草坪/mulch上方）
  ══════════════════════════════ -->

  <!-- 楼梯底部水泥条 X=160~192, Y=385~530 (Plan 3: 新建，原碎石区改铺) -->
  <rect x="160" y="385" width="32" height="145" fill="#c8c0b8" stroke="#555" stroke-width="1.5" stroke-dasharray="6,3"/>
  <!-- 现有Patio X=80~160, Y=225~385 -->
  <rect x="80" y="225" width="80" height="160" fill="#b8b0a8" stroke="none"/>
  <!-- 楼梯 X=160~192, Y=225~385 -->
  <rect x="160" y="225" width="32" height="160" fill="#e8d0a0" stroke="none"/>
  <!-- 北侧扩展Patio X=80~192, Y=105~225 -->
  <rect x="80" y="105" width="112" height="120" fill="#c8c0b8" stroke="none"/>

  <!-- ══════════════════════════════
       Patio外轮廓 (Plan 3)
       北侧扩展区：(80,105)→(192,105)→(192,225)→(80,225)
       楼梯底部水泥条：(160,385)→(192,385)→(192,530)→(160,530)
  ══════════════════════════════ -->
  <path d="M 80,105 L 192,105 L 192,225 L 80,225 Z"
        fill="none" stroke="#555" stroke-width="2.5"/>
  <path d="M 160,385 L 192,385 L 192,530 L 160,530 Z"
        fill="none" stroke="#555" stroke-width="2.5"/>

  <!-- 座椅矮墙 -->
  <line x1="80" y1="225" x2="192" y2="225" stroke="#555" stroke-width="4"/>
  <text x="136" y="222" text-anchor="middle" font-size="8" fill="#333">座椅矮墙</text>

  <!-- 现有Patio南边虚线 -->
  <line x1="80" y1="385" x2="192" y2="385" stroke="#888" stroke-width="1" stroke-dasharray="4,2"/>

  <!-- 内部标注 -->
  <rect x="80" y="225" width="80" height="160" fill="none" stroke="#a0784a" stroke-width="1.5" stroke-dasharray="7,3"/>
  <text x="120" y="291" text-anchor="middle" font-size="9" fill="#444" font-weight="bold">现有Patio</text>
  <text x="120" y="304" text-anchor="middle" font-size="8" fill="#666">20×10ft</text>
  <text x="120" y="317" text-anchor="middle" font-size="7" fill="#a0784a">Deck↑二层</text>

  <text x="120" y="150" text-anchor="middle" font-size="9" fill="#333" font-weight="bold">北侧扩展Patio</text>
  <text x="120" y="163" text-anchor="middle" font-size="8" fill="#555">~14ft × 15ft</text>
  <text x="120" y="176" text-anchor="middle" font-size="7" fill="#777">dining + 烧烤</text>

  <!-- 楼梯底部水泥条标注 -->
  <text x="176" y="462" text-anchor="middle" font-size="7" fill="#333" transform="rotate(-90,176,462)">楼梯底部新铺 4×18ft</text>

  <!-- 楼梯踏步线 -->
  <line x1="160" y1="241" x2="192" y2="241" stroke="#c0a060" stroke-width="0.9"/>
  <line x1="160" y1="257" x2="192" y2="257" stroke="#c0a060" stroke-width="0.9"/>
  <line x1="160" y1="273" x2="192" y2="273" stroke="#c0a060" stroke-width="0.9"/>
  <line x1="160" y1="289" x2="192" y2="289" stroke="#c0a060" stroke-width="0.9"/>
  <line x1="160" y1="305" x2="192" y2="305" stroke="#c0a060" stroke-width="0.9"/>
  <line x1="160" y1="321" x2="192" y2="321" stroke="#c0a060" stroke-width="0.9"/>
  <line x1="160" y1="337" x2="192" y2="337" stroke="#c0a060" stroke-width="0.9"/>
  <line x1="160" y1="353" x2="192" y2="353" stroke="#c0a060" stroke-width="0.9"/>
  <line x1="160" y1="369" x2="192" y2="369" stroke="#c0a060" stroke-width="0.9"/>
  <text x="176" y="310" text-anchor="middle" font-size="7" fill="#7a5a10" transform="rotate(-90,176,310)">楼梯 20ft</text>
  <circle cx="176" cy="385" r="5" fill="#b09040" stroke="#806010" stroke-width="1.5"/>

  <!-- L形转角 -->
  <path d="M 153 530 L 153 542 L 168 542" fill="none" stroke="#787060" stroke-width="1.5"/>
  <text x="140" y="555" font-size="7" fill="#666">L转角</text>

  <!-- 排水管改道 -->
  <circle cx="155" cy="145" r="6" fill="#4090d0" stroke="#2060a0" stroke-width="1.5"/>
  <text x="164" y="141" font-size="8" fill="#2060a0">落水管</text>
  <path d="M 155 151 L 155 172 L 205 172" fill="none" stroke="#4090d0" stroke-width="1.5" stroke-dasharray="4,2"/>
  <circle cx="205" cy="172" r="4" fill="#4090d0" stroke="#2060a0" stroke-width="1"/>
  <text x="210" y="176" font-size="7" fill="#2060a0">pop-up排水口</text>

  <!-- 北fence内侧种植带 -->
  <rect x="80" y="80" width="112" height="25" fill="#5a7a40" stroke="none" rx="2" opacity="0.8"/>
  <text x="136" y="97" text-anchor="middle" font-size="8" fill="#dff0c0">种植带</text>

  <!-- 脚踏石板（Mulch种植区内，含扩展北段） -->
  <!-- 最北段新增（Y=308~345） -->
  <rect x="225" y="310" width="18" height="14" fill="#c8c0b0" stroke="#888" stroke-width="1" rx="2"/>
  <rect x="260" y="320" width="16" height="12" fill="#c8c0b0" stroke="#888" stroke-width="1" rx="2"/>
  <rect x="375" y="308" width="18" height="14" fill="#c8c0b0" stroke="#888" stroke-width="1" rx="2"/>
  <rect x="408" y="320" width="16" height="12" fill="#c8c0b0" stroke="#888" stroke-width="1" rx="2"/>
  <!-- 次北段（Y=350~385） -->
  <rect x="220" y="352" width="18" height="14" fill="#c8c0b0" stroke="#888" stroke-width="1" rx="2"/>
  <rect x="255" y="360" width="16" height="12" fill="#c8c0b0" stroke="#888" stroke-width="1" rx="2"/>
  <rect x="370" y="350" width="18" height="14" fill="#c8c0b0" stroke="#888" stroke-width="1" rx="2"/>
  <rect x="405" y="362" width="16" height="12" fill="#c8c0b0" stroke="#888" stroke-width="1" rx="2"/>
  <!-- 原有（Y=390~510） -->
  <rect x="215" y="410" width="18" height="14" fill="#c8c0b0" stroke="#888" stroke-width="1" rx="2"/>
  <rect x="245" y="395" width="16" height="12" fill="#c8c0b0" stroke="#888" stroke-width="1" rx="2"/>
  <rect x="230" y="460" width="18" height="14" fill="#c8c0b0" stroke="#888" stroke-width="1" rx="2"/>
  <rect x="215" y="500" width="16" height="12" fill="#c8c0b0" stroke="#888" stroke-width="1" rx="2"/>
  <rect x="250" y="490" width="18" height="14" fill="#c8c0b0" stroke="#888" stroke-width="1" rx="2"/>
  <rect x="360" y="400" width="18" height="14" fill="#c8c0b0" stroke="#888" stroke-width="1" rx="2"/>
  <rect x="395" y="415" width="16" height="12" fill="#c8c0b0" stroke="#888" stroke-width="1" rx="2"/>
  <rect x="375" y="460" width="18" height="14" fill="#c8c0b0" stroke="#888" stroke-width="1" rx="2"/>
  <rect x="410" y="480" width="16" height="12" fill="#c8c0b0" stroke="#888" stroke-width="1" rx="2"/>
  <text x="305" y="535" text-anchor="middle" font-size="7" fill="#6a4a20">— 脚踏石板 —</text>

  <!-- ══════════════════════════════
       灌溉系统
  ══════════════════════════════ -->

  <!-- 西侧主管（X=224，套管段Y=80~160，草坪段Y=160~385） -->
  <line x1="224" y1="80" x2="224" y2="160" stroke="#4090d0" stroke-width="2" stroke-dasharray="6,3" opacity="0.9"/>
  <line x1="224" y1="160" x2="224" y2="385" stroke="#4090d0" stroke-width="2" opacity="0.9"/>

  <!-- 东侧主管（X=462） -->
  <line x1="462" y1="80" x2="462" y2="160" stroke="#4090d0" stroke-width="2" stroke-dasharray="6,3" opacity="0.9"/>
  <line x1="462" y1="160" x2="462" y2="385" stroke="#4090d0" stroke-width="2" opacity="0.9"/>

  <!-- 北侧连接管 -->
  <line x1="224" y1="88" x2="462" y2="88" stroke="#4090d0" stroke-width="2" stroke-dasharray="6,3" opacity="0.9"/>

  <!-- 西侧喷头（3个，朝东） -->
  <circle cx="224" cy="195" r="5" fill="#4090d0" stroke="#2060a0" stroke-width="1.5"/>
  <path d="M 224,195 L 248,180 A 24,24 0 0 1 248,210 Z" fill="#4090d0" opacity="0.25"/>
  <circle cx="224" cy="270" r="5" fill="#4090d0" stroke="#2060a0" stroke-width="1.5"/>
  <path d="M 224,270 L 248,255 A 24,24 0 0 1 248,285 Z" fill="#4090d0" opacity="0.25"/>
  <circle cx="224" cy="345" r="5" fill="#4090d0" stroke="#2060a0" stroke-width="1.5"/>
  <path d="M 224,345 L 248,330 A 24,24 0 0 1 248,360 Z" fill="#4090d0" opacity="0.25"/>

  <!-- 东侧喷头（3个，朝西） -->
  <circle cx="462" cy="195" r="5" fill="#4090d0" stroke="#2060a0" stroke-width="1.5"/>
  <path d="M 462,195 L 438,180 A 24,24 0 0 0 438,210 Z" fill="#4090d0" opacity="0.25"/>
  <circle cx="462" cy="270" r="5" fill="#4090d0" stroke="#2060a0" stroke-width="1.5"/>
  <path d="M 462,270 L 438,255 A 24,24 0 0 0 438,285 Z" fill="#4090d0" opacity="0.25"/>
  <circle cx="462" cy="345" r="5" fill="#4090d0" stroke="#2060a0" stroke-width="1.5"/>
  <path d="M 462,345 L 438,330 A 24,24 0 0 0 438,360 Z" fill="#4090d0" opacity="0.25"/>

  <!-- Mulch区滴灌支管（覆盖扩展后的Mulch区Y=305~530） -->
  <path d="M 192,318 Q 310,305 430,320 Q 442,335 430,350 Q 310,338 192,350 Q 178,335 192,318 Z"
        fill="none" stroke="#4090d0" stroke-width="1.5" stroke-dasharray="3,3" opacity="0.7"/>
  <path d="M 192,390 Q 310,375 430,392 Q 442,408 430,425 Q 310,410 192,425 Q 178,408 192,390 Z"
        fill="none" stroke="#4090d0" stroke-width="1.5" stroke-dasharray="3,3" opacity="0.7"/>
  <path d="M 192,460 Q 310,445 430,463 Q 442,480 430,497 Q 310,482 192,497 Q 178,480 192,460 Z"
        fill="none" stroke="#4090d0" stroke-width="1.5" stroke-dasharray="3,3" opacity="0.7"/>
  <text x="330" y="302" text-anchor="middle" font-size="7" fill="#2060a0">滴灌管</text>

  <!-- 套管标注 -->
  <text x="230" y="120" font-size="7" fill="#2060a0">套管</text>
  <text x="430" y="120" font-size="7" fill="#2060a0">套管</text>

  <!-- 西管改道标注 -->
  <defs>
    <marker id="arr12" markerWidth="7" markerHeight="6" refX="7" refY="3" orient="auto">
      <polygon points="0 0, 7 3, 0 6" fill="#d06010"/>
    </marker>
  </defs>
  <path d="M 192,160 L 224,160" fill="none" stroke="#e05050" stroke-width="1.5" stroke-dasharray="3,2" marker-end="url(#arr12)"/>
  <text x="196" y="155" font-size="7" fill="#e05050">西管东移4ft</text>

  <!-- Fire Pit -->
  <circle cx="330" cy="430" r="44" fill="#d4956a" stroke="#a06030" stroke-width="2" opacity="0.9"/>
  <circle cx="330" cy="430" r="21" fill="#c07040" stroke="#904020" stroke-width="1.5"/>
  <text x="330" y="426" text-anchor="middle" font-size="10" fill="#5a2a00" font-weight="bold">Fire Pit</text>
  <text x="330" y="440" text-anchor="middle" font-size="9" fill="#5a2a00">可移动式</text>

  <!-- 坡度箭头 -->
  <line x1="270" y1="200" x2="360" y2="211" stroke="#d06010" stroke-width="1.2" marker-end="url(#arr12)" stroke-dasharray="4,2"/>
  <text x="268" y="196" font-size="8" fill="#d06010">草坪 7.9%↘</text>
  <line x1="95" y1="140" x2="155" y2="149" stroke="#d06010" stroke-width="1.2" marker-end="url(#arr12)" stroke-dasharray="4,2"/>
  <text x="82" y="136" font-size="8" fill="#d06010">10%↘</text>
  <line x1="50" y1="553" x2="130" y2="563" stroke="#d06010" stroke-width="1.2" marker-end="url(#arr12)" stroke-dasharray="4,2"/>
  <text x="40" y="549" font-size="8" fill="#d06010">13%↘</text>

  <!-- 尺寸标注 -->
  <line x1="8" y1="80" x2="8" y2="610" stroke="#444" stroke-width="1"/>
  <line x1="3" y1="80" x2="13" y2="80" stroke="#444" stroke-width="1"/>
  <line x1="3" y1="610" x2="13" y2="610" stroke="#444" stroke-width="1"/>
  <text x="0" y="348" text-anchor="middle" font-size="9" fill="#333" transform="rotate(-90,0,348)">66.19 ft</text>
  <line x1="34" y1="80" x2="34" y2="225" stroke="#e05050" stroke-width="1"/>
  <line x1="29" y1="80" x2="39" y2="80" stroke="#e05050" stroke-width="1"/>
  <line x1="29" y1="225" x2="39" y2="225" stroke="#e05050" stroke-width="1"/>
  <text x="24" y="155" text-anchor="middle" font-size="8" fill="#e05050" transform="rotate(-90,24,155)">18.1ft</text>
  <line x1="34" y1="530" x2="34" y2="610" stroke="#e05050" stroke-width="1"/>
  <line x1="29" y1="530" x2="39" y2="530" stroke="#e05050" stroke-width="1"/>
  <line x1="29" y1="610" x2="39" y2="610" stroke="#e05050" stroke-width="1"/>
  <text x="24" y="572" text-anchor="middle" font-size="8" fill="#e05050" transform="rotate(-90,24,572)">9.96ft</text>
  <line x1="160" y1="62" x2="520" y2="62" stroke="#444" stroke-width="1"/>
  <line x1="160" y1="57" x2="160" y2="67" stroke="#444" stroke-width="1"/>
  <line x1="520" y1="57" x2="520" y2="67" stroke="#444" stroke-width="1"/>
  <text x="340" y="59" text-anchor="middle" font-size="10" fill="#333">~45 ft（房屋后墙到围栏）</text>
  <line x1="400" y1="80" x2="400" y2="530" stroke="#e03030" stroke-width="1" stroke-dasharray="5,4" opacity="0.5"/>
  <text x="404" y="100" font-size="8" fill="#e03030" opacity="0.7">←15ft退线</text>
  <line x1="480" y1="80" x2="480" y2="160" stroke="#5a8a30" stroke-width="0.8" stroke-dasharray="3,2"/>
  <line x1="475" y1="80" x2="485" y2="80" stroke="#5a8a30" stroke-width="0.8"/>
  <line x1="475" y1="160" x2="485" y2="160" stroke="#5a8a30" stroke-width="0.8"/>
  <text x="490" y="123" font-size="8" fill="#5a8a30">~10ft</text>
  <line x1="468" y1="400" x2="520" y2="400" stroke="#5a8a30" stroke-width="0.8" stroke-dasharray="3,2"/>
  <line x1="468" y1="395" x2="468" y2="405" stroke="#5a8a30" stroke-width="0.8"/>
  <line x1="520" y1="395" x2="520" y2="405" stroke="#5a8a30" stroke-width="0.8"/>
  <text x="492" y="413" text-anchor="middle" font-size="8" fill="#5a8a30">~6.5ft</text>

  <!-- 图例 -->
  <rect x="556" y="80" width="256" height="510" fill="#fff" stroke="#ddd" stroke-width="1" rx="8" opacity="0.97"/>
  <text x="684" y="102" text-anchor="middle" font-size="13" font-weight="bold" fill="#333">图　例</text>

  <rect x="568" y="112" width="18" height="12" fill="#d0c8b8" rx="1"/>
  <text x="592" y="123" font-size="10" fill="#333">房屋主体</text>

  <rect x="568" y="130" width="18" height="12" fill="#b8b0a8" rx="1"/>
  <rect x="568" y="130" width="18" height="12" fill="none" stroke="#a0784a" stroke-width="1.5" stroke-dasharray="4,2" rx="1"/>
  <text x="592" y="141" font-size="10" fill="#333">现有Patio / Deck二层</text>

  <rect x="568" y="148" width="18" height="12" fill="#e8d0a0" rx="1"/>
  <text x="592" y="159" font-size="10" fill="#333">楼梯（东墙外，20ft）</text>

  <rect x="568" y="166" width="18" height="12" fill="#a8a090" rx="1"/>
  <text x="592" y="177" font-size="10" fill="#333">现有水泥（South Pathway）</text>

  <rect x="568" y="184" width="18" height="12" fill="#c8c0b8" stroke="#555" stroke-width="1" stroke-dasharray="4,2" rx="1"/>
  <text x="592" y="195" font-size="10" fill="#333">新建水泥 P1（北扩+底部条）</text>

  <circle cx="577" cy="210" r="5" fill="#4090d0" stroke="#2060a0" stroke-width="1.5"/>
  <text x="592" y="214" font-size="10" fill="#333">落水管（地下改道）</text>

  <rect x="568" y="222" width="18" height="12" fill="#7ab648" rx="1" opacity="0.85"/>
  <text x="592" y="233" font-size="10" fill="#333">草坪保留区 ~625 sqft P2</text>

  <circle cx="577" cy="247" r="7" fill="#d4956a"/>
  <text x="592" y="251" font-size="10" fill="#333">Fire Pit（可移动）P1</text>

  <rect x="568" y="259" width="18" height="12" fill="#a07850" rx="1" opacity="0.8"/>
  <text x="592" y="270" font-size="10" fill="#333">Mulch种植区 P2</text>

  <rect x="568" y="277" width="18" height="12" fill="#8B6040" rx="1" opacity="0.6"/>
  <text x="592" y="288" font-size="10" fill="#333">东侧隔离带（现有）</text>

  <rect x="568" y="295" width="18" height="12" fill="#c0a878" rx="1" opacity="0.7"/>
  <text x="592" y="306" font-size="10" fill="#333">碎石区（现有）</text>

  <rect x="568" y="313" width="18" height="12" fill="#5a7a40" rx="1"/>
  <text x="592" y="324" font-size="10" fill="#333">种植带 P3</text>

  <rect x="568" y="331" width="18" height="12" fill="#c8a060" rx="1"/>
  <text x="592" y="342" font-size="10" fill="#333">Garden Box（现有×3）</text>

  <line x1="568" y1="357" x2="586" y2="357" stroke="#8B6914" stroke-width="3" stroke-dasharray="6,2"/>
  <text x="592" y="361" font-size="10" fill="#333">围栏</text>

  <line x1="568" y1="373" x2="586" y2="373" stroke="#555" stroke-width="3.5"/>
  <text x="592" y="377" font-size="10" fill="#333">座椅矮墙</text>

  <line x1="568" y1="389" x2="586" y2="389" stroke="#e03030" stroke-width="1" stroke-dasharray="4,3" opacity="0.6"/>
  <text x="592" y="393" font-size="10" fill="#333">15ft退线</text>

  <line x1="568" y1="405" x2="586" y2="405" stroke="#d06010" stroke-width="1.2" marker-end="url(#arr12)" stroke-dasharray="4,2"/>
  <text x="592" y="409" font-size="10" fill="#333">坡度方向</text>

  <rect x="568" y="417" width="18" height="12" fill="#c8c0b0" stroke="#888" stroke-width="1" rx="2"/>
  <text x="592" y="428" font-size="10" fill="#333">脚踏石板</text>

  <!-- 灌溉图例 -->
  <line x1="568" y1="442" x2="586" y2="442" stroke="#4090d0" stroke-width="2"/>
  <text x="592" y="446" font-size="10" fill="#333">灌溉主管（草坪段）</text>

  <line x1="568" y1="458" x2="586" y2="458" stroke="#4090d0" stroke-width="2" stroke-dasharray="5,3"/>
  <text x="592" y="462" font-size="10" fill="#333">套管/引入段</text>

  <circle cx="577" cy="474" r="4" fill="#4090d0" stroke="#2060a0" stroke-width="1.5"/>
  <text x="592" y="478" font-size="10" fill="#333">喷头</text>

  <line x1="568" y1="490" x2="586" y2="490" stroke="#4090d0" stroke-width="1.5" stroke-dasharray="3,3"/>
  <text x="592" y="494" font-size="10" fill="#333">滴灌管（Mulch区）</text>

  <!-- Ground Truth -->
  <rect x="564" y="506" width="240" height="76" fill="#2c2c2c" rx="6"/>
  <text x="684" y="523" text-anchor="middle" font-size="11" font-weight="bold" fill="#e8d8b0">Ground Truth 数据</text>
  <text x="572" y="538" font-size="9" fill="#aaa">地块面积</text><text x="798" y="538" text-anchor="end" font-size="9" fill="#eee" font-weight="bold">6,448 sq ft</text>
  <text x="572" y="551" font-size="9" fill="#aaa">后院宽度（南北）</text><text x="798" y="551" text-anchor="end" font-size="9" fill="#eee" font-weight="bold">66.19 ft</text>
  <text x="572" y="564" font-size="9" fill="#aaa">新建铺装（北扩+底部条）</text><text x="798" y="564" text-anchor="end" font-size="9" fill="#eee" font-weight="bold">~282 sq ft</text>
  <text x="572" y="577" font-size="9" fill="#aaa">草坪坡度 / 海拔</text><text x="798" y="577" text-anchor="end" font-size="9" fill="#eee" font-weight="bold">7.9% / 5,721ft</text>

</svg>
