<svg xmlns="http://www.w3.org/2000/svg" viewBox="0 0 820 680" width="820" height="680" font-family="Georgia, serif">

  <rect width="820" height="680" fill="#f5f0e8"/>
  <text x="410" y="28" text-anchor="middle" font-size="16" font-weight="bold" fill="#2c2c2c">8958 Fraser River St — 后院改造平面图 v10</text>
  <text x="410" y="45" text-anchor="middle" font-size="11" fill="#888">上=东（偏南） · 下=西 · 左=北 · 右=南 · 1ft ≈ 8px</text>

  <!--
  斜切角修正：
  斜切线：(192,225) → (224,257)
  右上三角（草坪）：(192,225)(224,225)(224,257) → 绿色
  左下三角（Patio）：(192,225)(224,257)(192,257) → 灰色

  东扩通道完整Patio区域（含斜切左下三角）：
  多边形：(192,225)(224,257)(224,385)(192,385) → 灰色

  草坪多边形：
  (192,160)(468,160)(468,385)(224,385)(224,225)(192,225)
  再加右上三角：(192,225)(224,225)(224,257)

  合并草坪为：
  (192,160)(468,160)(468,385)(224,385)(224,225)(192,225)
  注意(224,257)处：草坪到(224,257)不到(224,225)
  
  实际草坪轮廓（含右上三角）：
  (192,160)→(468,160)→(468,385)→(224,385)→(224,257)→(224,225)→(192,225)→(192,160)
  等价于：
  (192,160)→(468,160)→(468,385)→(224,385)→(224,225)→(192,225)
  因为(224,257)到(224,225)是垂直线，已包含在(224,385)→(224,225)这条边里

  所以草坪多边形：(192,160)(468,160)(468,385)(224,385)(224,225)(192,225)
  这样草坪在X=224左边从Y=160到Y=225这段都是绿色
  斜切右上三角(192,225)(224,225)(224,257)单独再画一个绿色三角覆盖

  Patio东扩区域：
  矩形(192,225)(224,385)，但东北角(192,225)(224,225)(224,257)是草坪
  所以Patio东扩 = 矩形 - 右上三角 = 多边形：
  (192,225)(224,257)(224,385)(192,385)
  -->

  <!-- 围栏 -->
  <line x1="520" y1="80" x2="520" y2="610" stroke="#8B6914" stroke-width="4" stroke-dasharray="12,4"/>
  <line x1="160" y1="80" x2="520" y2="80" stroke="#8B6914" stroke-width="2.5" stroke-dasharray="10,4"/>
  <text x="537" y="348" text-anchor="middle" font-size="10" fill="#8B6914" transform="rotate(90,537,348)">东侧围栏 66.19 ft</text>
  <text x="340" y="76" text-anchor="middle" font-size="9" fill="#8B6914">北侧围栏</text>

  <!-- 东侧隔离带 -->
  <rect x="468" y="80" width="52" height="450" fill="#8B6040" stroke="none" opacity="0.55"/>
  <!-- 黑色mulch带（隔离带内，弧形，参考照片） -->
  <path d="M 468,150 Q 480,200 472,280 Q 465,340 470,420 Q 475,460 468,510" 
        fill="none" stroke="#1a1a1a" stroke-width="22" stroke-linecap="round" opacity="0.75"/>
  <path d="M 475,155 Q 487,210 480,285 Q 473,345 478,425 Q 483,465 476,512" 
        fill="none" stroke="#1a1a1a" stroke-width="14" stroke-linecap="round" opacity="0.5"/>
  <text x="462" y="310" text-anchor="middle" font-size="8" fill="#5a3a20" transform="rotate(-90,462,310)">碎石+Mulch隔离带 ~6.5ft</text>

  <!-- 北侧碎石带 X=192~468, Y=80~160 -->
  <rect x="192" y="80" width="276" height="80" fill="#c0a878" stroke="none" opacity="0.6"/>
  <text x="330" y="124" text-anchor="middle" font-size="9" fill="#5a3a10">碎石区（草坪北侧 ~10ft）</text>

  <!-- 右下角隔离带延伸到底 -->
  <rect x="468" y="530" width="52" height="80" fill="#8B6040" stroke="none" opacity="0.55"/>

  <!-- 松树（东南角落，靠近南侧fence） -->
  <circle cx="494" cy="592" r="16" fill="#2a6820" stroke="#1a4810" stroke-width="1.5" opacity="0.95"/>
  <text x="494" y="596" text-anchor="middle" font-size="7" fill="#fff">松树</text>

  <!-- 梨树 + 三个Garden Box（沿北fence向西） -->
  <circle cx="498" cy="97" r="17" fill="#3a7a28" stroke="#1a5010" stroke-width="1.5"/>
  <text x="498" y="101" text-anchor="middle" font-size="8" fill="#fff">梨树</text>
  <!-- Box 1（最东，紧靠梨树） -->
  <rect x="432" y="83" width="48" height="30" fill="#c8a060" stroke="#8B6030" stroke-width="2" rx="2"/>
  <text x="456" y="102" text-anchor="middle" font-size="7" fill="#5a3000">Box 1</text>
  <!-- Box 2（中） -->
  <rect x="378" y="83" width="48" height="30" fill="#c8a060" stroke="#8B6030" stroke-width="2" rx="2"/>
  <text x="402" y="102" text-anchor="middle" font-size="7" fill="#5a3000">Box 2</text>
  <!-- Box 3（最西） -->
  <rect x="324" y="83" width="48" height="30" fill="#c8a060" stroke="#8B6030" stroke-width="2" rx="2"/>
  <text x="348" y="102" text-anchor="middle" font-size="7" fill="#5a3000">Box 3</text>

  <!-- South Pathway X=20~224 -->
  <rect x="20" y="530" width="204" height="80" fill="#a8a090" stroke="#787060" stroke-width="1.5" rx="2" opacity="0.9"/>
  <text x="112" y="563" text-anchor="middle" font-size="9" fill="#333" font-weight="bold">南侧Pathway（现有水泥）</text>
  <text x="112" y="576" text-anchor="middle" font-size="8" fill="#555">9.96ft · 坡度13% · 保留</text>
  <line x1="224" y1="525" x2="224" y2="618" stroke="#787060" stroke-width="2"/>

  <!-- pathway以东碎石区 -->
  <rect x="224" y="530" width="244" height="80" fill="#c0a878" stroke="#806040" stroke-width="1" stroke-dasharray="4,3" rx="2" opacity="0.5"/>
  <text x="346" y="575" text-anchor="middle" font-size="9" fill="#6a4a20">碎石/Mulch区</text>

  <!-- 房屋主体 -->
  <rect x="20" y="225" width="140" height="305" fill="#d0c8b8" stroke="#888" stroke-width="2" rx="2"/>
  <text x="55" y="385" text-anchor="middle" font-size="11" fill="#777" transform="rotate(-90,55,385)">房　屋</text>

  <!-- ══════════════════════════════
       草坪（底层先画）
       主体：(192,160)(468,160)(468,385)(224,385)(224,225)(192,225)
       右上三角补丁：(192,225)(224,225)(224,257)
  ══════════════════════════════ -->
  <polygon points="192,160 468,160 468,385 224,385 224,225 192,225"
           fill="#7ab648" stroke="none" opacity="0.85"/>
  <!-- 右上三角（草坪）覆盖斜切右上角 -->
  <path d="M 192,225 L 224,225 L 224,257 Q 210,245 192,225 Z" fill="#7ab648" stroke="none" opacity="0.85"/>

  <!-- 草坪标注 -->
  <text x="346" y="258" text-anchor="middle" font-size="12" fill="#1a4a00" font-weight="bold">草坪保留区</text>
  <text x="346" y="274" text-anchor="middle" font-size="9" fill="#2d5a0e">~300 sq ft</text>
  <text x="346" y="289" text-anchor="middle" font-size="8" fill="#3a6a1a">Fine Fescue / Buffalo Grass</text>

  <!-- Mulch种植区 -->
  <rect x="224" y="385" width="244" height="145" fill="#a07850" stroke="#806040" stroke-width="1.5" rx="3" opacity="0.7"/>
  <text x="360" y="448" text-anchor="middle" font-size="10" fill="#4a2a00">Mulch 种植区</text>
  <text x="360" y="463" text-anchor="middle" font-size="9" fill="#5a3a10">Russian Sage · Blue Oat Grass</text>

  <!-- ══════════════════════════════
       水泥区域（画在草坪上方）
  ══════════════════════════════ -->

  <!-- 现有水泥条 X=160~192, Y=385~530 -->
  <rect x="160" y="385" width="32" height="145" fill="#a8a090" stroke="none"/>
  <!-- 现有Patio X=80~160, Y=225~385 -->
  <rect x="80" y="225" width="80" height="160" fill="#b8b0a8" stroke="none"/>
  <!-- 楼梯 X=160~192, Y=225~385 -->
  <rect x="160" y="225" width="32" height="160" fill="#e8d0a0" stroke="none"/>
  <!-- 北侧扩展Patio X=80~192, Y=105~225 -->
  <rect x="80" y="105" width="112" height="120" fill="#c8c0b8" stroke="none"/>
  <!-- 东扩通道（含斜切左下三角）
       多边形：(192,225)(224,257)(224,385)(192,385) -->
  <path d="M 192,225 Q 210,245 224,257 L 224,385 L 192,385 Z" fill="#c8c0b8" stroke="none"/>
  <!-- 东扩南部水泥条 X=192~224, Y=385~530 -->
  <rect x="192" y="385" width="32" height="145" fill="#b8b0a8" stroke="none"/>

  <!-- ══════════════════════════════
       Patio外轮廓
       (80,105)→(192,105)→(192,225)→(224,257)→(224,530)→(160,530)→(160,385)→(80,385)
  ══════════════════════════════ -->
  <path d="M 80,105 L 192,105 L 192,225 Q 210,245 224,257 L 224,530 L 160,530 L 160,385 L 80,385 Z"
           fill="none" stroke="#555" stroke-width="2.5"/>



  <!-- 座椅矮墙 -->
  <line x1="80" y1="225" x2="192" y2="225" stroke="#555" stroke-width="4"/>
  <text x="136" y="222" text-anchor="middle" font-size="8" fill="#333">座椅矮墙</text>

  <!-- 楼梯与东扩分界虚线 X=192, Y=225~385 -->
  <line x1="192" y1="225" x2="192" y2="385" stroke="#b09040" stroke-width="1.5" stroke-dasharray="5,3"/>

  <!-- 现有Patio南边虚线 -->
  <line x1="80" y1="385" x2="160" y2="385" stroke="#888" stroke-width="1" stroke-dasharray="4,2"/>

  <!-- 弧线切角标注 -->
  <path d="M 192,225 Q 210,245 224,257" fill="none" stroke="#e05050" stroke-width="2" stroke-dasharray="4,2"/>
  <text x="218" y="232" font-size="8" fill="#e05050" font-weight="bold">弧切</text>

  <!-- 内部标注 -->
  <rect x="80" y="225" width="80" height="160" fill="none" stroke="#a0784a" stroke-width="1.5" stroke-dasharray="7,3"/>
  <text x="120" y="291" text-anchor="middle" font-size="9" fill="#444" font-weight="bold">现有Patio</text>
  <text x="120" y="304" text-anchor="middle" font-size="8" fill="#666">20×10ft</text>
  <text x="120" y="317" text-anchor="middle" font-size="7" fill="#a0784a">Deck↑二层</text>

  <text x="120" y="150" text-anchor="middle" font-size="9" fill="#333" font-weight="bold">北侧扩展Patio</text>
  <text x="120" y="163" text-anchor="middle" font-size="8" fill="#555">~14ft × 15ft</text>
  <text x="120" y="176" text-anchor="middle" font-size="7" fill="#777">dining + 烧烤</text>

  <text x="208" y="335" text-anchor="middle" font-size="7" fill="#333" transform="rotate(-90,208,335)">东扩通道</text>
  <text x="208" y="462" text-anchor="middle" font-size="7" fill="#444" transform="rotate(-90,208,462)">东扩水泥条</text>

  <!-- 楼梯踏步线 -->
  <line x1="160" y1="241" x2="192" y2="241" stroke="#c0a060" stroke-width="0.9"/>
  <line x1="160" y1="257" x2="192" y2="257" stroke="#c0a060" stroke-width="0.9"/>
  <line x1="160" y1="273" x2="192" y2="273" stroke="#c0a060" stroke-width="0.9"/>
  <line x1="160" y1="289" x2="192" y2="289" stroke="#c0a060" stroke-width="0.9"/>
  <line x1="160" y1="305" x2="192" y2="305" stroke="#c0a060" stroke-width="0.9"/>
  <line x1="160" y1="321" x2="192" y2="321" stroke="#c0a060" stroke-width="0.9"/>
  <line x1="160" y1="337" x2="192" y2="337" stroke="#c0a060" stroke-width="0.9"/>
  <line x1="160" y1="353" x2="192" y2="353" stroke="#c0a060" stroke-width="0.9"/>
  <line x1="160" y1="369" x2="192" y2="369" stroke="#c0a060" stroke-width="0.9"/>
  <text x="176" y="310" text-anchor="middle" font-size="7" fill="#7a5a10" transform="rotate(-90,176,310)">楼梯 20ft</text>
  <circle cx="176" cy="385" r="5" fill="#b09040" stroke="#806010" stroke-width="1.5"/>

  <!-- L形转角 -->
  <path d="M 153 530 L 153 542 L 168 542" fill="none" stroke="#787060" stroke-width="1.5"/>
  <text x="140" y="555" font-size="7" fill="#666">L转角</text>

  <!-- 排水管改道 -->
  <circle cx="155" cy="145" r="6" fill="#4090d0" stroke="#2060a0" stroke-width="1.5"/>
  <text x="164" y="141" font-size="8" fill="#2060a0">落水管</text>
  <path d="M 155 151 L 155 172 L 205 172" fill="none" stroke="#4090d0" stroke-width="1.5" stroke-dasharray="4,2"/>
  <circle cx="205" cy="172" r="4" fill="#4090d0" stroke="#2060a0" stroke-width="1"/>
  <text x="210" y="176" font-size="7" fill="#2060a0">pop-up排水口</text>

  <!-- 北fence内侧种植带 -->
  <rect x="80" y="80" width="112" height="25" fill="#5a7a40" stroke="none" rx="2" opacity="0.8"/>
  <text x="136" y="97" text-anchor="middle" font-size="8" fill="#dff0c0">种植带</text>

  <!-- 脚踏石板（Mulch种植区内） -->
  <rect x="245" y="410" width="18" height="14" fill="#c8c0b0" stroke="#888" stroke-width="1" rx="2"/>
  <rect x="275" y="395" width="16" height="12" fill="#c8c0b0" stroke="#888" stroke-width="1" rx="2"/>
  <rect x="260" y="460" width="18" height="14" fill="#c8c0b0" stroke="#888" stroke-width="1" rx="2"/>
  <rect x="240" y="500" width="16" height="12" fill="#c8c0b0" stroke="#888" stroke-width="1" rx="2"/>
  <rect x="275" y="490" width="18" height="14" fill="#c8c0b0" stroke="#888" stroke-width="1" rx="2"/>
  <rect x="360" y="400" width="18" height="14" fill="#c8c0b0" stroke="#888" stroke-width="1" rx="2"/>
  <rect x="395" y="415" width="16" height="12" fill="#c8c0b0" stroke="#888" stroke-width="1" rx="2"/>
  <rect x="375" y="460" width="18" height="14" fill="#c8c0b0" stroke="#888" stroke-width="1" rx="2"/>
  <rect x="410" y="480" width="16" height="12" fill="#c8c0b0" stroke="#888" stroke-width="1" rx="2"/>
  <text x="235" y="535" font-size="7" fill="#6a4a20">— 脚踏石板 —</text>

  <!-- ══════════════════════════════
       灌溉系统
  ══════════════════════════════ -->

  <!-- 西侧主管（X=224，南北向） -->
  <!-- Patio下套管段（Y=105~160，蓝色虚线） -->
  <line x1="224" y1="80" x2="224" y2="160" stroke="#4090d0" stroke-width="2" stroke-dasharray="6,3" opacity="0.9"/>
  <!-- 草坪段（Y=160~385，实线） -->
  <line x1="224" y1="160" x2="224" y2="385" stroke="#4090d0" stroke-width="2" opacity="0.9"/>

  <!-- 东侧主管（X=462，南北向） -->
  <line x1="462" y1="80" x2="462" y2="160" stroke="#4090d0" stroke-width="2" stroke-dasharray="6,3" opacity="0.9"/>
  <line x1="462" y1="160" x2="462" y2="385" stroke="#4090d0" stroke-width="2" opacity="0.9"/>

  <!-- 北侧连接管（从北fence引入，Y=80横向连接两管） -->
  <line x1="224" y1="88" x2="462" y2="88" stroke="#4090d0" stroke-width="2" stroke-dasharray="6,3" opacity="0.9"/>

  <!-- 西侧喷头（3个，Y=195,270,345，朝东喷向草坪） -->
  <!-- 喷头符号：小圆+扇形弧线 -->
  <circle cx="224" cy="195" r="5" fill="#4090d0" stroke="#2060a0" stroke-width="1.5"/>
  <path d="M 224,195 L 248,180 A 24,24 0 0 1 248,210 Z" fill="#4090d0" opacity="0.25"/>

  <circle cx="224" cy="270" r="5" fill="#4090d0" stroke="#2060a0" stroke-width="1.5"/>
  <path d="M 224,270 L 248,255 A 24,24 0 0 1 248,285 Z" fill="#4090d0" opacity="0.25"/>

  <circle cx="224" cy="345" r="5" fill="#4090d0" stroke="#2060a0" stroke-width="1.5"/>
  <path d="M 224,345 L 248,330 A 24,24 0 0 1 248,360 Z" fill="#4090d0" opacity="0.25"/>

  <!-- 东侧喷头（3个，Y=195,270,345，朝西喷向草坪） -->
  <circle cx="462" cy="195" r="5" fill="#4090d0" stroke="#2060a0" stroke-width="1.5"/>
  <path d="M 462,195 L 438,180 A 24,24 0 0 0 438,210 Z" fill="#4090d0" opacity="0.25"/>

  <circle cx="462" cy="270" r="5" fill="#4090d0" stroke="#2060a0" stroke-width="1.5"/>
  <path d="M 462,270 L 438,255 A 24,24 0 0 0 438,285 Z" fill="#4090d0" opacity="0.25"/>

  <circle cx="462" cy="345" r="5" fill="#4090d0" stroke="#2060a0" stroke-width="1.5"/>
  <path d="M 462,345 L 438,330 A 24,24 0 0 0 438,360 Z" fill="#4090d0" opacity="0.25"/>

  <!-- Mulch区滴灌支管（从西侧主管Y=385接出，横向） -->
  <path d="M 224,430 Q 310,415 430,435 Q 440,450 430,470 Q 310,455 224,470 Q 210,450 224,430 Z"
        fill="none" stroke="#4090d0" stroke-width="1.5" stroke-dasharray="3,3" opacity="0.7"/>
  <text x="330" y="410" text-anchor="middle" font-size="7" fill="#2060a0">滴灌管</text>

  <!-- 套管标注 -->
  <text x="230" y="120" font-size="7" fill="#2060a0">套管</text>
  <text x="430" y="120" font-size="7" fill="#2060a0">套管</text>

  <!-- 西管改道标注（从原X=192移到X=224） -->
  <path d="M 192,160 L 224,160" fill="none" stroke="#e05050" stroke-width="1.5" stroke-dasharray="3,2" marker-end="url(#arr10)"/>
  <text x="196" y="155" font-size="7" fill="#e05050">西管东移4ft</text>

  <!-- Fire Pit -->
  <circle cx="320" cy="430" r="44" fill="#d4956a" stroke="#a06030" stroke-width="2" opacity="0.9"/>
  <circle cx="320" cy="430" r="21" fill="#c07040" stroke="#904020" stroke-width="1.5"/>
  <text x="320" y="426" text-anchor="middle" font-size="10" fill="#5a2a00" font-weight="bold">Fire Pit</text>
  <text x="320" y="440" text-anchor="middle" font-size="9" fill="#5a2a00">可移动式</text>

  <!-- 坡度箭头 -->
  <defs>
    <marker id="arr10" markerWidth="7" markerHeight="6" refX="7" refY="3" orient="auto">
      <polygon points="0 0, 7 3, 0 6" fill="#d06010"/>
    </marker>
  </defs>
  <line x1="270" y1="200" x2="360" y2="211" stroke="#d06010" stroke-width="1.2" marker-end="url(#arr10)" stroke-dasharray="4,2"/>
  <text x="268" y="196" font-size="8" fill="#d06010">草坪 7.9%↘</text>
  <line x1="95" y1="140" x2="155" y2="149" stroke="#d06010" stroke-width="1.2" marker-end="url(#arr10)" stroke-dasharray="4,2"/>
  <text x="82" y="136" font-size="8" fill="#d06010">10%↘</text>
  <line x1="50" y1="553" x2="130" y2="563" stroke="#d06010" stroke-width="1.2" marker-end="url(#arr10)" stroke-dasharray="4,2"/>
  <text x="40" y="549" font-size="8" fill="#d06010">13%↘</text>

  <!-- 尺寸标注 -->
  <line x1="8" y1="80" x2="8" y2="610" stroke="#444" stroke-width="1"/>
  <line x1="3" y1="80" x2="13" y2="80" stroke="#444" stroke-width="1"/>
  <line x1="3" y1="610" x2="13" y2="610" stroke="#444" stroke-width="1"/>
  <text x="0" y="348" text-anchor="middle" font-size="9" fill="#333" transform="rotate(-90,0,348)">66.19 ft</text>
  <line x1="34" y1="80" x2="34" y2="225" stroke="#e05050" stroke-width="1"/>
  <line x1="29" y1="80" x2="39" y2="80" stroke="#e05050" stroke-width="1"/>
  <line x1="29" y1="225" x2="39" y2="225" stroke="#e05050" stroke-width="1"/>
  <text x="24" y="155" text-anchor="middle" font-size="8" fill="#e05050" transform="rotate(-90,24,155)">18.1ft</text>
  <line x1="34" y1="530" x2="34" y2="610" stroke="#e05050" stroke-width="1"/>
  <line x1="29" y1="530" x2="39" y2="530" stroke="#e05050" stroke-width="1"/>
  <line x1="29" y1="610" x2="39" y2="610" stroke="#e05050" stroke-width="1"/>
  <text x="24" y="572" text-anchor="middle" font-size="8" fill="#e05050" transform="rotate(-90,24,572)">9.96ft</text>
  <line x1="160" y1="62" x2="520" y2="62" stroke="#444" stroke-width="1"/>
  <line x1="160" y1="57" x2="160" y2="67" stroke="#444" stroke-width="1"/>
  <line x1="520" y1="57" x2="520" y2="67" stroke="#444" stroke-width="1"/>
  <text x="340" y="59" text-anchor="middle" font-size="10" fill="#333">~45 ft（房屋后墙到围栏）</text>
  <line x1="400" y1="80" x2="400" y2="530" stroke="#e03030" stroke-width="1" stroke-dasharray="5,4" opacity="0.5"/>
  <text x="404" y="100" font-size="8" fill="#e03030" opacity="0.7">←15ft退线</text>
  <line x1="480" y1="80" x2="480" y2="160" stroke="#5a8a30" stroke-width="0.8" stroke-dasharray="3,2"/>
  <line x1="475" y1="80" x2="485" y2="80" stroke="#5a8a30" stroke-width="0.8"/>
  <line x1="475" y1="160" x2="485" y2="160" stroke="#5a8a30" stroke-width="0.8"/>
  <text x="490" y="123" font-size="8" fill="#5a8a30">~10ft</text>
  <line x1="468" y1="400" x2="520" y2="400" stroke="#5a8a30" stroke-width="0.8" stroke-dasharray="3,2"/>
  <line x1="468" y1="395" x2="468" y2="405" stroke="#5a8a30" stroke-width="0.8"/>
  <line x1="520" y1="395" x2="520" y2="405" stroke="#5a8a30" stroke-width="0.8"/>
  <text x="492" y="413" text-anchor="middle" font-size="8" fill="#5a8a30">~6.5ft</text>

  <!-- 图例 -->
  <rect x="556" y="80" width="256" height="490" fill="#fff" stroke="#ddd" stroke-width="1" rx="8" opacity="0.97"/>
  <text x="684" y="102" text-anchor="middle" font-size="13" font-weight="bold" fill="#333">图　例</text>
  <rect x="568" y="112" width="18" height="12" fill="#d0c8b8" rx="1"/>
  <text x="592" y="123" font-size="10" fill="#333">房屋主体</text>
  <rect x="568" y="130" width="18" height="12" fill="#b8b0a8" rx="1"/>
  <rect x="568" y="130" width="18" height="12" fill="none" stroke="#a0784a" stroke-width="1.5" stroke-dasharray="4,2" rx="1"/>
  <text x="592" y="141" font-size="10" fill="#333">现有Patio / Deck二层</text>
  <rect x="568" y="148" width="18" height="12" fill="#e8d0a0" rx="1"/>
  <text x="592" y="159" font-size="10" fill="#333">楼梯（东墙外，20ft）</text>
  <rect x="568" y="166" width="18" height="12" fill="#a8a090" rx="1"/>
  <text x="592" y="177" font-size="10" fill="#333">现有水泥（条+Pathway）</text>
  <rect x="568" y="184" width="18" height="12" fill="#c8c0b8" stroke="#555" stroke-width="1" stroke-dasharray="4,2" rx="1"/>
  <text x="592" y="195" font-size="10" fill="#333">新建水泥区（扩展）P1</text>
  <line x1="568" y1="210" x2="586" y2="210" stroke="#e05050" stroke-width="2.5"/>
  <text x="592" y="214" font-size="10" fill="#333">45°斜切角</text>
  <circle cx="577" cy="226" r="5" fill="#4090d0" stroke="#2060a0" stroke-width="1.5"/>
  <text x="592" y="230" font-size="10" fill="#333">落水管（地下改道）</text>
  <rect x="568" y="238" width="18" height="12" fill="#7ab648" rx="1" opacity="0.85"/>
  <text x="592" y="249" font-size="10" fill="#333">草坪保留区 P2</text>
  <circle cx="577" cy="263" r="7" fill="#d4956a"/>
  <text x="592" y="267" font-size="10" fill="#333">Fire Pit P1</text>
  <rect x="568" y="275" width="18" height="12" fill="#a07850" rx="1" opacity="0.8"/>
  <text x="592" y="286" font-size="10" fill="#333">Mulch种植区 P2</text>
  <rect x="568" y="293" width="18" height="12" fill="#8B6040" rx="1" opacity="0.6"/>
  <text x="592" y="304" font-size="10" fill="#333">东侧隔离带 P2</text>
  <rect x="568" y="311" width="18" height="12" fill="#c0a878" rx="1" opacity="0.7"/>
  <text x="592" y="322" font-size="10" fill="#333">碎石区（现有）</text>
  <rect x="568" y="329" width="18" height="12" fill="#5a7a40" rx="1"/>
  <text x="592" y="340" font-size="10" fill="#333">种植带 P3</text>
  <rect x="568" y="347" width="18" height="12" fill="#c8a060" rx="1"/>
  <text x="592" y="358" font-size="10" fill="#333">Garden Box P3</text>
  <line x1="568" y1="373" x2="586" y2="373" stroke="#8B6914" stroke-width="3" stroke-dasharray="6,2"/>
  <text x="592" y="377" font-size="10" fill="#333">围栏</text>
  <line x1="568" y1="391" x2="586" y2="391" stroke="#555" stroke-width="3.5"/>
  <text x="592" y="395" font-size="10" fill="#333">座椅矮墙</text>
  <line x1="568" y1="409" x2="586" y2="409" stroke="#e03030" stroke-width="1" stroke-dasharray="4,3" opacity="0.6"/>
  <text x="592" y="413" font-size="10" fill="#333">15ft退线</text>
  <!-- 灌溉图例 -->
  <line x1="568" y1="456" x2="586" y2="456" stroke="#4090d0" stroke-width="2"/>
  <text x="592" y="460" font-size="10" fill="#333">灌溉主管（草坪段）</text>
  <line x1="568" y1="472" x2="586" y2="472" stroke="#4090d0" stroke-width="2" stroke-dasharray="5,3"/>
  <text x="592" y="476" font-size="10" fill="#333">套管/引入段</text>
  <circle cx="577" cy="488" r="4" fill="#4090d0" stroke="#2060a0" stroke-width="1.5"/>
  <text x="592" y="492" font-size="10" fill="#333">喷头</text>
  <line x1="568" y1="504" x2="586" y2="504" stroke="#4090d0" stroke-width="1.5" stroke-dasharray="3,3"/>
  <text x="592" y="508" font-size="10" fill="#333">滴灌管（Mulch区）</text>

  <rect x="568" y="438" width="18" height="12" fill="#c8c0b0" stroke="#888" stroke-width="1" rx="2"/>
  <text x="592" y="449" font-size="10" fill="#333">脚踏石板</text>

  <line x1="568" y1="427" x2="586" y2="427" stroke="#d06010" stroke-width="1.2" marker-end="url(#arr10)" stroke-dasharray="4,2"/>
  <text x="592" y="431" font-size="10" fill="#333">坡度方向</text>

  <!-- Ground Truth -->
  <rect x="564" y="448" width="240" height="124" fill="#2c2c2c" rx="6"/>
  <text x="684" y="467" text-anchor="middle" font-size="11" font-weight="bold" fill="#e8d8b0">Ground Truth 数据</text>
  <text x="572" y="483" font-size="9" fill="#aaa">地块面积</text><text x="798" y="483" text-anchor="end" font-size="9" fill="#eee" font-weight="bold">6,448 sq ft</text>
  <text x="572" y="497" font-size="9" fill="#aaa">后院宽度（南北）</text><text x="798" y="497" text-anchor="end" font-size="9" fill="#eee" font-weight="bold">66.19 ft</text>
  <text x="572" y="511" font-size="9" fill="#aaa">Deck / Patio</text><text x="798" y="511" text-anchor="end" font-size="9" fill="#eee" font-weight="bold">20×10 ft（房屋内）</text>
  <text x="572" y="525" font-size="9" fill="#aaa">楼梯</text><text x="798" y="525" text-anchor="end" font-size="9" fill="#eee" font-weight="bold">20ft × ~4ft</text>
  <text x="572" y="539" font-size="9" fill="#aaa">斜切角</text><text x="798" y="539" text-anchor="end" font-size="9" fill="#eee" font-weight="bold">45° 右上绿/左下灰</text>
  <text x="572" y="553" font-size="9" fill="#aaa">草坪坡度 / 海拔</text><text x="798" y="553" text-anchor="end" font-size="9" fill="#eee" font-weight="bold">7.9% / 5,721ft</text>
  <text x="572" y="567" font-size="9" fill="#aaa">后院退线</text><text x="798" y="567" text-anchor="end" font-size="9" fill="#eee" font-weight="bold">15 ft</text>

</svg>
